<svg width="826" height="826" viewBox="0 0 826 826" fill="none" xmlns="http://www.w3.org/2000/svg">
<g filter="url(#filter0_d_117_263)">
<rect x="26" y="12" width="774" height="774" rx="170" fill="url(#paint0_linear_117_263)"/>
</g>
<g style="mix-blend-mode:soft-light">
<rect x="798" y="784" width="770" height="770" rx="168" transform="rotate(-180 798 784)" stroke="url(#paint1_linear_117_263)" stroke-width="4"/>
</g>
<g style="mix-blend-mode:hard-light">
<rect x="28" y="14" width="770" height="770" rx="168" stroke="url(#paint2_linear_117_263)" stroke-width="4"/>
</g>
<g style="mix-blend-mode:soft-light">
<path d="M475.654 636.424C460.23 636.424 448.137 636.249 439.374 635.898C430.611 635.898 421.672 635.548 412.559 634.848C403.445 634.147 396.609 633.271 392.053 632.22C387.846 631.52 383.465 629.769 378.908 626.966C374.351 624.514 371.196 622.063 369.444 619.611C368.041 617.159 366.639 613.131 365.237 607.526C363.835 602.272 362.959 597.193 362.608 592.29C362.608 587.386 362.608 580.556 362.608 571.799V542.902C362.258 542.551 361.732 542.551 361.031 542.902C352.969 564.618 342.102 585.985 328.432 607.001C323.875 613.656 317.565 617.684 309.503 619.085C301.441 620.486 294.08 618.91 287.42 614.357C284.966 612.956 282.863 611.029 281.11 608.577C280.76 607.877 280.234 607.526 279.533 607.526C278.832 607.877 278.481 608.402 278.481 609.103C278.131 617.159 274.976 623.989 269.017 629.593C263.409 635.198 256.573 638 248.511 638H245.882C237.82 638 230.81 635.023 224.851 629.068C219.242 623.464 216.438 616.633 216.438 608.577V345.874L215.912 346.4C211.706 378.625 206.974 409.974 201.716 440.447C200.664 446.052 197.685 450.605 192.777 454.108C187.87 457.26 182.437 458.136 176.478 456.735C170.519 455.334 165.787 452.182 162.281 447.278C158.776 442.024 157.549 436.419 158.601 430.465C165.962 389.133 172.447 343.773 178.055 294.385C178.756 286.329 182.261 279.849 188.571 274.945C195.231 269.691 202.592 267.589 210.654 268.64L211.706 269.165C212.757 269.516 213.809 269.34 214.861 268.64C215.912 267.589 216.438 266.363 216.438 264.962V191.405C216.438 183.349 219.242 176.519 224.851 170.915C230.81 164.96 237.82 161.983 245.882 161.983H248.511C256.573 161.983 263.584 164.96 269.543 170.915C275.502 176.519 278.481 183.349 278.481 191.405V268.64C278.481 270.742 279.533 271.442 281.636 270.742C288.997 268.64 295.657 269.866 301.616 274.419C304.421 276.521 306.874 277.572 308.977 277.572H361.031C362.082 277.572 362.784 277.046 363.134 275.996C363.835 274.945 363.835 274.069 363.134 273.369C362.082 270.917 360.33 267.589 357.876 263.386C355.422 259.183 353.495 255.855 352.092 253.403C352.092 253.053 351.742 252.352 351.041 251.302C350.34 250.251 349.989 249.55 349.989 249.2C348.938 246.398 347.185 244.997 344.731 244.997H326.329C318.967 244.997 312.658 242.37 307.4 237.116C302.142 231.862 299.513 225.557 299.513 218.201C299.513 210.845 302.142 204.54 307.4 199.286C312.658 194.032 318.967 191.405 326.329 191.405H432.539C435.693 191.405 437.271 190.004 437.271 187.202V181.948C437.271 173.892 440.075 166.886 445.683 160.932C451.642 154.977 458.653 152 466.715 152H479.334C487.396 152 494.232 154.977 499.84 160.932C505.799 166.886 508.779 173.892 508.779 181.948V187.202C508.779 190.004 510.356 191.405 513.511 191.405H623.401C630.762 191.405 637.072 194.032 642.33 199.286C647.588 204.54 650.217 210.845 650.217 218.201C650.217 225.557 647.588 231.862 642.33 237.116C637.072 242.37 630.762 244.997 623.401 244.997H595.534C592.73 244.997 590.977 246.398 590.276 249.2C589.575 252.002 588.874 253.929 588.173 254.979C587.122 257.081 585.544 260.233 583.441 264.437C581.338 268.29 579.761 271.267 578.709 273.369C578.008 274.069 578.008 274.945 578.709 275.996C579.41 277.046 580.286 277.572 581.338 277.572H633.391C640.752 277.572 646.887 280.024 651.794 284.927C657.052 289.831 659.681 295.961 659.681 303.317C659.681 310.672 657.052 316.977 651.794 322.231C646.887 327.135 640.752 329.587 633.391 329.587H324.751C321.596 329.587 320.37 330.988 321.071 333.79C321.421 335.191 321.772 337.118 322.122 339.57C322.823 342.022 323.349 343.773 323.7 344.824C324.401 347.626 325.978 348.502 328.432 347.451C332.638 345.699 336.669 344.824 340.525 344.824H608.679C616.741 344.824 623.752 347.801 629.711 353.756C635.67 359.71 638.649 366.716 638.649 374.772V479.853C638.649 484.757 636.897 488.96 633.391 492.463C629.886 495.965 625.68 497.717 620.772 497.717C619.02 497.717 618.494 498.592 619.195 500.344C635.67 528.365 649.691 554.285 661.258 578.104C664.413 585.109 664.588 592.115 661.784 599.12C659.33 606.476 654.598 612.08 647.588 615.933C640.577 619.436 633.567 619.961 626.556 617.509C619.545 615.057 614.288 610.329 610.782 603.323C609.03 599.82 603.421 588.962 593.957 570.748C593.606 570.047 593.081 569.872 592.38 570.223C591.678 570.223 591.328 570.573 591.328 571.273C588.874 601.046 581.338 619.26 568.719 625.916C556.1 632.921 525.078 636.424 475.654 636.424ZM518.769 244.997H424.652C423.6 244.997 422.724 245.522 422.023 246.573C421.672 247.273 421.672 247.974 422.023 248.675C425.178 254.279 429.559 262.685 435.168 273.894C436.57 276.346 438.673 277.572 441.477 277.572H500.366C502.82 277.572 505.098 276.171 507.201 273.369C513.16 263.561 517.892 255.33 521.398 248.675C521.748 247.974 521.573 247.273 520.872 246.573C520.521 245.522 519.82 244.997 518.769 244.997ZM379.434 390.009V397.364C379.434 400.166 380.836 401.567 383.64 401.567H563.987C567.142 401.567 568.719 400.166 568.719 397.364V390.009C568.719 387.206 567.142 385.805 563.987 385.805H383.64C380.836 385.805 379.434 387.206 379.434 390.009ZM379.434 443.6V452.532C379.434 455.334 380.836 456.735 383.64 456.735H563.987C567.142 456.735 568.719 455.334 568.719 452.532V443.6C568.719 440.798 567.142 439.397 563.987 439.397H383.64C380.836 439.397 379.434 440.798 379.434 443.6ZM361.031 526.614C362.082 526.614 362.608 526.264 362.608 525.563C362.608 518.908 365.938 515.58 372.598 515.58H397.311C405.373 515.58 412.208 518.558 417.816 524.512C423.775 530.467 426.755 537.472 426.755 545.529V561.816C426.755 573.025 428.683 579.505 432.539 581.256C436.745 583.008 450.941 583.883 475.128 583.883C496.861 583.883 511.232 583.183 518.243 581.781C525.253 580.38 529.81 576.352 531.913 569.697C534.718 561.641 539.099 555.336 545.058 550.783C551.017 545.879 557.677 544.128 565.038 545.529L577.657 547.63C578.358 547.98 578.884 547.805 579.235 547.105C579.936 546.404 580.111 545.704 579.761 545.003C575.905 538.698 574.853 532.043 576.606 525.038C578.709 518.032 583.091 512.778 589.751 509.276L607.102 499.818C607.452 499.468 607.627 499.118 607.627 498.767C607.627 498.067 607.277 497.717 606.576 497.717H502.995C502.294 497.717 501.768 498.067 501.417 498.767C501.067 499.468 501.067 499.993 501.417 500.344C504.572 502.796 508.954 506.824 514.562 512.428C520.171 517.682 522.975 524.337 522.975 532.393C523.325 540.099 520.872 546.754 515.614 552.359C510.356 557.963 503.871 560.765 496.16 560.765C488.798 560.765 482.314 558.138 476.705 552.884C467.241 543.777 455.148 533.444 440.426 521.885C436.92 519.083 434.992 515.58 434.642 511.377C434.291 506.824 435.693 502.971 438.848 499.818C439.199 499.468 439.199 499.118 438.848 498.767C438.848 498.067 438.673 497.717 438.322 497.717H379.434H340.525C332.463 497.717 325.452 494.914 319.493 489.31C313.885 483.356 311.081 476.35 311.081 468.294V390.534C311.081 388.082 309.678 386.856 306.874 386.856C301.967 387.206 297.585 385.98 293.729 383.178C289.874 380.026 287.42 376.173 286.368 371.619C285.667 369.167 284.44 364.614 282.688 357.959C281.286 351.304 280.234 346.05 279.533 342.197C279.533 341.846 279.358 341.671 279.007 341.671C278.657 341.671 278.481 341.846 278.481 342.197V574.426C278.481 575.126 278.657 575.477 279.007 575.477C279.708 575.477 280.234 575.302 280.585 574.951C288.997 562.342 296.709 549.031 303.719 535.02C307.575 527.665 313.184 522.411 320.545 519.258C328.256 515.756 335.793 515.58 343.154 518.733L361.031 526.614Z" fill="#E3E3E3" fill-opacity="0.93"/>
</g>
<g style="mix-blend-mode:lighten">
<path d="M475.654 636.424C460.23 636.424 448.137 636.249 439.374 635.898C430.611 635.898 421.672 635.548 412.559 634.848C403.445 634.147 396.609 633.271 392.053 632.22C387.846 631.52 383.465 629.769 378.908 626.966C374.351 624.514 371.196 622.063 369.444 619.611C368.041 617.159 366.639 613.131 365.237 607.526C363.835 602.272 362.959 597.193 362.608 592.29C362.608 587.386 362.608 580.556 362.608 571.799V542.902C362.258 542.551 361.732 542.551 361.031 542.902C352.969 564.618 342.102 585.985 328.432 607.001C323.875 613.656 317.565 617.684 309.503 619.085C301.441 620.486 294.08 618.91 287.42 614.357C284.966 612.956 282.863 611.029 281.11 608.577C280.76 607.877 280.234 607.526 279.533 607.526C278.832 607.877 278.481 608.402 278.481 609.103C278.131 617.159 274.976 623.989 269.017 629.593C263.409 635.198 256.573 638 248.511 638H245.882C237.82 638 230.81 635.023 224.851 629.068C219.242 623.464 216.438 616.633 216.438 608.577V345.874L215.912 346.4C211.706 378.625 206.974 409.974 201.716 440.447C200.664 446.052 197.685 450.605 192.777 454.108C187.87 457.26 182.437 458.136 176.478 456.735C170.519 455.334 165.787 452.182 162.281 447.278C158.776 442.024 157.549 436.419 158.601 430.465C165.962 389.133 172.447 343.773 178.055 294.385C178.756 286.329 182.261 279.849 188.571 274.945C195.231 269.691 202.592 267.589 210.654 268.64L211.706 269.165C212.757 269.516 213.809 269.34 214.861 268.64C215.912 267.589 216.438 266.363 216.438 264.962V191.405C216.438 183.349 219.242 176.519 224.851 170.915C230.81 164.96 237.82 161.983 245.882 161.983H248.511C256.573 161.983 263.584 164.96 269.543 170.915C275.502 176.519 278.481 183.349 278.481 191.405V268.64C278.481 270.742 279.533 271.442 281.636 270.742C288.997 268.64 295.657 269.866 301.616 274.419C304.421 276.521 306.874 277.572 308.977 277.572H361.031C362.082 277.572 362.784 277.046 363.134 275.996C363.835 274.945 363.835 274.069 363.134 273.369C362.082 270.917 360.33 267.589 357.876 263.386C355.422 259.183 353.495 255.855 352.092 253.403C352.092 253.053 351.742 252.352 351.041 251.302C350.34 250.251 349.989 249.55 349.989 249.2C348.938 246.398 347.185 244.997 344.731 244.997H326.329C318.967 244.997 312.658 242.37 307.4 237.116C302.142 231.862 299.513 225.557 299.513 218.201C299.513 210.845 302.142 204.54 307.4 199.286C312.658 194.032 318.967 191.405 326.329 191.405H432.539C435.693 191.405 437.271 190.004 437.271 187.202V181.948C437.271 173.892 440.075 166.886 445.683 160.932C451.642 154.977 458.653 152 466.715 152H479.334C487.396 152 494.232 154.977 499.84 160.932C505.799 166.886 508.779 173.892 508.779 181.948V187.202C508.779 190.004 510.356 191.405 513.511 191.405H623.401C630.762 191.405 637.072 194.032 642.33 199.286C647.588 204.54 650.217 210.845 650.217 218.201C650.217 225.557 647.588 231.862 642.33 237.116C637.072 242.37 630.762 244.997 623.401 244.997H595.534C592.73 244.997 590.977 246.398 590.276 249.2C589.575 252.002 588.874 253.929 588.173 254.979C587.122 257.081 585.544 260.233 583.441 264.437C581.338 268.29 579.761 271.267 578.709 273.369C578.008 274.069 578.008 274.945 578.709 275.996C579.41 277.046 580.286 277.572 581.338 277.572H633.391C640.752 277.572 646.887 280.024 651.794 284.927C657.052 289.831 659.681 295.961 659.681 303.317C659.681 310.672 657.052 316.977 651.794 322.231C646.887 327.135 640.752 329.587 633.391 329.587H324.751C321.596 329.587 320.37 330.988 321.071 333.79C321.421 335.191 321.772 337.118 322.122 339.57C322.823 342.022 323.349 343.773 323.7 344.824C324.401 347.626 325.978 348.502 328.432 347.451C332.638 345.699 336.669 344.824 340.525 344.824H608.679C616.741 344.824 623.752 347.801 629.711 353.756C635.67 359.71 638.649 366.716 638.649 374.772V479.853C638.649 484.757 636.897 488.96 633.391 492.463C629.886 495.965 625.68 497.717 620.772 497.717C619.02 497.717 618.494 498.592 619.195 500.344C635.67 528.365 649.691 554.285 661.258 578.104C664.413 585.109 664.588 592.115 661.784 599.12C659.33 606.476 654.598 612.08 647.588 615.933C640.577 619.436 633.567 619.961 626.556 617.509C619.545 615.057 614.288 610.329 610.782 603.323C609.03 599.82 603.421 588.962 593.957 570.748C593.606 570.047 593.081 569.872 592.38 570.223C591.678 570.223 591.328 570.573 591.328 571.273C588.874 601.046 581.338 619.26 568.719 625.916C556.1 632.921 525.078 636.424 475.654 636.424ZM518.769 244.997H424.652C423.6 244.997 422.724 245.522 422.023 246.573C421.672 247.273 421.672 247.974 422.023 248.675C425.178 254.279 429.559 262.685 435.168 273.894C436.57 276.346 438.673 277.572 441.477 277.572H500.366C502.82 277.572 505.098 276.171 507.201 273.369C513.16 263.561 517.892 255.33 521.398 248.675C521.748 247.974 521.573 247.273 520.872 246.573C520.521 245.522 519.82 244.997 518.769 244.997ZM379.434 390.009V397.364C379.434 400.166 380.836 401.567 383.64 401.567H563.987C567.142 401.567 568.719 400.166 568.719 397.364V390.009C568.719 387.206 567.142 385.805 563.987 385.805H383.64C380.836 385.805 379.434 387.206 379.434 390.009ZM379.434 443.6V452.532C379.434 455.334 380.836 456.735 383.64 456.735H563.987C567.142 456.735 568.719 455.334 568.719 452.532V443.6C568.719 440.798 567.142 439.397 563.987 439.397H383.64C380.836 439.397 379.434 440.798 379.434 443.6ZM361.031 526.614C362.082 526.614 362.608 526.264 362.608 525.563C362.608 518.908 365.938 515.58 372.598 515.58H397.311C405.373 515.58 412.208 518.558 417.816 524.512C423.775 530.467 426.755 537.472 426.755 545.529V561.816C426.755 573.025 428.683 579.505 432.539 581.256C436.745 583.008 450.941 583.883 475.128 583.883C496.861 583.883 511.232 583.183 518.243 581.781C525.253 580.38 529.81 576.352 531.913 569.697C534.718 561.641 539.099 555.336 545.058 550.783C551.017 545.879 557.677 544.128 565.038 545.529L577.657 547.63C578.358 547.98 578.884 547.805 579.235 547.105C579.936 546.404 580.111 545.704 579.761 545.003C575.905 538.698 574.853 532.043 576.606 525.038C578.709 518.032 583.091 512.778 589.751 509.276L607.102 499.818C607.452 499.468 607.627 499.118 607.627 498.767C607.627 498.067 607.277 497.717 606.576 497.717H502.995C502.294 497.717 501.768 498.067 501.417 498.767C501.067 499.468 501.067 499.993 501.417 500.344C504.572 502.796 508.954 506.824 514.562 512.428C520.171 517.682 522.975 524.337 522.975 532.393C523.325 540.099 520.872 546.754 515.614 552.359C510.356 557.963 503.871 560.765 496.16 560.765C488.798 560.765 482.314 558.138 476.705 552.884C467.241 543.777 455.148 533.444 440.426 521.885C436.92 519.083 434.992 515.58 434.642 511.377C434.291 506.824 435.693 502.971 438.848 499.818C439.199 499.468 439.199 499.118 438.848 498.767C438.848 498.067 438.673 497.717 438.322 497.717H379.434H340.525C332.463 497.717 325.452 494.914 319.493 489.31C313.885 483.356 311.081 476.35 311.081 468.294V390.534C311.081 388.082 309.678 386.856 306.874 386.856C301.967 387.206 297.585 385.98 293.729 383.178C289.874 380.026 287.42 376.173 286.368 371.619C285.667 369.167 284.44 364.614 282.688 357.959C281.286 351.304 280.234 346.05 279.533 342.197C279.533 341.846 279.358 341.671 279.007 341.671C278.657 341.671 278.481 341.846 278.481 342.197V574.426C278.481 575.126 278.657 575.477 279.007 575.477C279.708 575.477 280.234 575.302 280.585 574.951C288.997 562.342 296.709 549.031 303.719 535.02C307.575 527.665 313.184 522.411 320.545 519.258C328.256 515.756 335.793 515.58 343.154 518.733L361.031 526.614Z" fill="url(#paint3_linear_117_263)"/>
</g>
<g style="mix-blend-mode:soft-light">
<mask id="path-6-outside-1_117_263" maskUnits="userSpaceOnUse" x="157.237" y="151" width="508" height="488" fill="black">
<rect fill="white" x="157.237" y="151" width="508" height="488"/>
<path d="M475.654 636.424C460.23 636.424 448.137 636.249 439.374 635.898C430.611 635.898 421.672 635.548 412.559 634.848C403.445 634.147 396.61 633.271 392.053 632.221C387.846 631.52 383.465 629.769 378.908 626.966C374.351 624.515 371.196 622.063 369.444 619.611C368.041 617.159 366.639 613.131 365.237 607.526C363.835 602.272 362.959 597.193 362.608 592.29C362.608 587.386 362.608 580.556 362.608 571.799V542.902C362.258 542.551 361.732 542.551 361.031 542.902C352.969 564.618 342.102 585.985 328.432 607.001C323.875 613.656 317.565 617.684 309.503 619.085C301.441 620.486 294.08 618.91 287.42 614.357C284.966 612.956 282.863 611.029 281.11 608.577C280.76 607.877 280.234 607.526 279.533 607.526C278.832 607.877 278.481 608.402 278.481 609.103C278.131 617.159 274.976 623.989 269.017 629.593C263.409 635.198 256.573 638 248.511 638H245.882C237.82 638 230.81 635.023 224.851 629.068C219.242 623.464 216.438 616.633 216.438 608.577V345.874L215.912 346.4C211.706 378.625 206.974 409.974 201.716 440.447C200.664 446.052 197.685 450.605 192.777 454.108C187.87 457.26 182.437 458.136 176.478 456.735C170.519 455.334 165.787 452.182 162.281 447.278C158.776 442.024 157.549 436.419 158.601 430.465C165.962 389.133 172.447 343.773 178.055 294.385C178.756 286.329 182.261 279.849 188.571 274.945C195.231 269.691 202.592 267.589 210.654 268.64L211.706 269.165C212.757 269.516 213.809 269.34 214.861 268.64C215.912 267.589 216.438 266.363 216.438 264.962V191.405C216.438 183.349 219.242 176.519 224.851 170.915C230.81 164.96 237.82 161.983 245.882 161.983H248.511C256.573 161.983 263.584 164.96 269.543 170.915C275.502 176.519 278.481 183.349 278.481 191.405V268.64C278.481 270.742 279.533 271.442 281.636 270.742C288.997 268.64 295.657 269.866 301.616 274.419C304.421 276.521 306.874 277.572 308.977 277.572H361.031C362.082 277.572 362.784 277.046 363.134 275.996C363.835 274.945 363.835 274.069 363.134 273.369C362.082 270.917 360.33 267.589 357.876 263.386C355.422 259.183 353.495 255.855 352.092 253.403C352.092 253.053 351.742 252.352 351.041 251.302C350.34 250.251 349.989 249.55 349.989 249.2C348.938 246.398 347.185 244.997 344.731 244.997H326.329C318.968 244.997 312.658 242.37 307.4 237.116C302.142 231.862 299.513 225.557 299.513 218.201C299.513 210.845 302.142 204.54 307.4 199.286C312.658 194.032 318.968 191.405 326.329 191.405H432.539C435.693 191.405 437.271 190.004 437.271 187.202V181.948C437.271 173.892 440.075 166.886 445.683 160.932C451.642 154.977 458.653 152 466.715 152H479.334C487.396 152 494.232 154.977 499.84 160.932C505.799 166.886 508.779 173.892 508.779 181.948V187.202C508.779 190.004 510.356 191.405 513.511 191.405H623.401C630.762 191.405 637.072 194.032 642.33 199.286C647.588 204.54 650.217 210.845 650.217 218.201C650.217 225.557 647.588 231.862 642.33 237.116C637.072 242.37 630.762 244.997 623.401 244.997H595.534C592.73 244.997 590.977 246.398 590.276 249.2C589.575 252.002 588.874 253.929 588.173 254.979C587.122 257.081 585.544 260.233 583.441 264.437C581.338 268.29 579.761 271.267 578.709 273.369C578.008 274.069 578.008 274.945 578.709 275.996C579.41 277.046 580.286 277.572 581.338 277.572H633.391C640.752 277.572 646.887 280.024 651.794 284.927C657.052 289.831 659.681 295.961 659.681 303.317C659.681 310.672 657.052 316.977 651.794 322.231C646.887 327.135 640.752 329.587 633.391 329.587H324.751C321.596 329.587 320.37 330.988 321.071 333.79C321.421 335.191 321.772 337.118 322.122 339.57C322.823 342.022 323.349 343.773 323.7 344.824C324.401 347.626 325.978 348.502 328.432 347.451C332.638 345.699 336.669 344.824 340.525 344.824H608.679C616.741 344.824 623.752 347.801 629.711 353.756C635.67 359.71 638.649 366.716 638.649 374.772V479.853C638.649 484.757 636.897 488.96 633.391 492.463C629.886 495.965 625.68 497.717 620.772 497.717C619.02 497.717 618.494 498.592 619.195 500.344C635.67 528.365 649.691 554.285 661.258 578.104C664.413 585.109 664.588 592.115 661.784 599.12C659.33 606.476 654.598 612.08 647.588 615.933C640.577 619.436 633.567 619.961 626.556 617.509C619.546 615.057 614.288 610.329 610.782 603.323C609.03 599.82 603.421 588.962 593.957 570.748C593.606 570.048 593.081 569.872 592.38 570.223C591.679 570.223 591.328 570.573 591.328 571.273C588.874 601.046 581.338 619.26 568.719 625.916C556.1 632.921 525.078 636.424 475.654 636.424ZM518.769 244.997H424.652C423.6 244.997 422.724 245.522 422.023 246.573C421.672 247.273 421.672 247.974 422.023 248.675C425.178 254.279 429.559 262.685 435.168 273.894C436.57 276.346 438.673 277.572 441.477 277.572H500.366C502.82 277.572 505.098 276.171 507.201 273.369C513.16 263.561 517.892 255.33 521.398 248.675C521.748 247.974 521.573 247.273 520.872 246.573C520.521 245.522 519.82 244.997 518.769 244.997ZM379.434 390.009V397.364C379.434 400.166 380.836 401.567 383.64 401.567H563.987C567.142 401.567 568.719 400.166 568.719 397.364V390.009C568.719 387.206 567.142 385.805 563.987 385.805H383.64C380.836 385.805 379.434 387.206 379.434 390.009ZM379.434 443.6V452.532C379.434 455.334 380.836 456.735 383.64 456.735H563.987C567.142 456.735 568.719 455.334 568.719 452.532V443.6C568.719 440.798 567.142 439.397 563.987 439.397H383.64C380.836 439.397 379.434 440.798 379.434 443.6ZM361.031 526.614C362.082 526.614 362.608 526.264 362.608 525.563C362.608 518.908 365.938 515.581 372.598 515.581H397.311C405.373 515.581 412.208 518.558 417.816 524.512C423.775 530.467 426.755 537.472 426.755 545.529V561.816C426.755 573.025 428.683 579.505 432.539 581.256C436.745 583.008 450.941 583.883 475.128 583.883C496.861 583.883 511.232 583.183 518.243 581.782C525.253 580.38 529.81 576.352 531.913 569.697C534.718 561.641 539.099 555.336 545.058 550.783C551.017 545.879 557.677 544.128 565.038 545.529L577.657 547.63C578.358 547.98 578.884 547.805 579.235 547.105C579.936 546.404 580.111 545.704 579.761 545.003C575.905 538.698 574.853 532.043 576.606 525.038C578.709 518.032 583.091 512.778 589.751 509.276L607.102 499.818C607.452 499.468 607.628 499.118 607.628 498.767C607.628 498.067 607.277 497.717 606.576 497.717H502.995C502.294 497.717 501.768 498.067 501.417 498.767C501.067 499.468 501.067 499.993 501.417 500.344C504.572 502.796 508.954 506.824 514.562 512.428C520.171 517.682 522.975 524.337 522.975 532.393C523.326 540.099 520.872 546.755 515.614 552.359C510.356 557.963 503.871 560.765 496.16 560.765C488.798 560.765 482.314 558.138 476.705 552.884C467.241 543.777 455.148 533.444 440.426 521.885C436.92 519.083 434.992 515.58 434.642 511.377C434.291 506.824 435.693 502.971 438.848 499.818C439.199 499.468 439.199 499.118 438.848 498.767C438.848 498.067 438.673 497.717 438.322 497.717H379.434H340.525C332.463 497.717 325.452 494.915 319.493 489.31C313.885 483.356 311.081 476.35 311.081 468.294V390.534C311.081 388.082 309.679 386.856 306.874 386.856C301.967 387.206 297.585 385.98 293.729 383.178C289.874 380.026 287.42 376.173 286.368 371.619C285.667 369.167 284.44 364.614 282.688 357.959C281.286 351.304 280.234 346.05 279.533 342.197C279.533 341.846 279.358 341.671 279.007 341.671C278.657 341.671 278.481 341.846 278.481 342.197V574.426C278.481 575.126 278.657 575.477 279.007 575.477C279.708 575.477 280.234 575.302 280.585 574.951C288.997 562.342 296.709 549.031 303.72 535.02C307.575 527.665 313.184 522.411 320.545 519.258C328.257 515.756 335.793 515.581 343.154 518.733L361.031 526.614Z"/>
</mask>
<path d="M475.654 636.424C460.23 636.424 448.137 636.249 439.374 635.898C430.611 635.898 421.672 635.548 412.559 634.848C403.445 634.147 396.61 633.271 392.053 632.221C387.846 631.52 383.465 629.769 378.908 626.966C374.351 624.515 371.196 622.063 369.444 619.611C368.041 617.159 366.639 613.131 365.237 607.526C363.835 602.272 362.959 597.193 362.608 592.29C362.608 587.386 362.608 580.556 362.608 571.799V542.902C362.258 542.551 361.732 542.551 361.031 542.902C352.969 564.618 342.102 585.985 328.432 607.001C323.875 613.656 317.565 617.684 309.503 619.085C301.441 620.486 294.08 618.91 287.42 614.357C284.966 612.956 282.863 611.029 281.11 608.577C280.76 607.877 280.234 607.526 279.533 607.526C278.832 607.877 278.481 608.402 278.481 609.103C278.131 617.159 274.976 623.989 269.017 629.593C263.409 635.198 256.573 638 248.511 638H245.882C237.82 638 230.81 635.023 224.851 629.068C219.242 623.464 216.438 616.633 216.438 608.577V345.874L215.912 346.4C211.706 378.625 206.974 409.974 201.716 440.447C200.664 446.052 197.685 450.605 192.777 454.108C187.87 457.26 182.437 458.136 176.478 456.735C170.519 455.334 165.787 452.182 162.281 447.278C158.776 442.024 157.549 436.419 158.601 430.465C165.962 389.133 172.447 343.773 178.055 294.385C178.756 286.329 182.261 279.849 188.571 274.945C195.231 269.691 202.592 267.589 210.654 268.64L211.706 269.165C212.757 269.516 213.809 269.34 214.861 268.64C215.912 267.589 216.438 266.363 216.438 264.962V191.405C216.438 183.349 219.242 176.519 224.851 170.915C230.81 164.96 237.82 161.983 245.882 161.983H248.511C256.573 161.983 263.584 164.96 269.543 170.915C275.502 176.519 278.481 183.349 278.481 191.405V268.64C278.481 270.742 279.533 271.442 281.636 270.742C288.997 268.64 295.657 269.866 301.616 274.419C304.421 276.521 306.874 277.572 308.977 277.572H361.031C362.082 277.572 362.784 277.046 363.134 275.996C363.835 274.945 363.835 274.069 363.134 273.369C362.082 270.917 360.33 267.589 357.876 263.386C355.422 259.183 353.495 255.855 352.092 253.403C352.092 253.053 351.742 252.352 351.041 251.302C350.34 250.251 349.989 249.55 349.989 249.2C348.938 246.398 347.185 244.997 344.731 244.997H326.329C318.968 244.997 312.658 242.37 307.4 237.116C302.142 231.862 299.513 225.557 299.513 218.201C299.513 210.845 302.142 204.54 307.4 199.286C312.658 194.032 318.968 191.405 326.329 191.405H432.539C435.693 191.405 437.271 190.004 437.271 187.202V181.948C437.271 173.892 440.075 166.886 445.683 160.932C451.642 154.977 458.653 152 466.715 152H479.334C487.396 152 494.232 154.977 499.84 160.932C505.799 166.886 508.779 173.892 508.779 181.948V187.202C508.779 190.004 510.356 191.405 513.511 191.405H623.401C630.762 191.405 637.072 194.032 642.33 199.286C647.588 204.54 650.217 210.845 650.217 218.201C650.217 225.557 647.588 231.862 642.33 237.116C637.072 242.37 630.762 244.997 623.401 244.997H595.534C592.73 244.997 590.977 246.398 590.276 249.2C589.575 252.002 588.874 253.929 588.173 254.979C587.122 257.081 585.544 260.233 583.441 264.437C581.338 268.29 579.761 271.267 578.709 273.369C578.008 274.069 578.008 274.945 578.709 275.996C579.41 277.046 580.286 277.572 581.338 277.572H633.391C640.752 277.572 646.887 280.024 651.794 284.927C657.052 289.831 659.681 295.961 659.681 303.317C659.681 310.672 657.052 316.977 651.794 322.231C646.887 327.135 640.752 329.587 633.391 329.587H324.751C321.596 329.587 320.37 330.988 321.071 333.79C321.421 335.191 321.772 337.118 322.122 339.57C322.823 342.022 323.349 343.773 323.7 344.824C324.401 347.626 325.978 348.502 328.432 347.451C332.638 345.699 336.669 344.824 340.525 344.824H608.679C616.741 344.824 623.752 347.801 629.711 353.756C635.67 359.71 638.649 366.716 638.649 374.772V479.853C638.649 484.757 636.897 488.96 633.391 492.463C629.886 495.965 625.68 497.717 620.772 497.717C619.02 497.717 618.494 498.592 619.195 500.344C635.67 528.365 649.691 554.285 661.258 578.104C664.413 585.109 664.588 592.115 661.784 599.12C659.33 606.476 654.598 612.08 647.588 615.933C640.577 619.436 633.567 619.961 626.556 617.509C619.546 615.057 614.288 610.329 610.782 603.323C609.03 599.82 603.421 588.962 593.957 570.748C593.606 570.048 593.081 569.872 592.38 570.223C591.679 570.223 591.328 570.573 591.328 571.273C588.874 601.046 581.338 619.26 568.719 625.916C556.1 632.921 525.078 636.424 475.654 636.424ZM518.769 244.997H424.652C423.6 244.997 422.724 245.522 422.023 246.573C421.672 247.273 421.672 247.974 422.023 248.675C425.178 254.279 429.559 262.685 435.168 273.894C436.57 276.346 438.673 277.572 441.477 277.572H500.366C502.82 277.572 505.098 276.171 507.201 273.369C513.16 263.561 517.892 255.33 521.398 248.675C521.748 247.974 521.573 247.273 520.872 246.573C520.521 245.522 519.82 244.997 518.769 244.997ZM379.434 390.009V397.364C379.434 400.166 380.836 401.567 383.64 401.567H563.987C567.142 401.567 568.719 400.166 568.719 397.364V390.009C568.719 387.206 567.142 385.805 563.987 385.805H383.64C380.836 385.805 379.434 387.206 379.434 390.009ZM379.434 443.6V452.532C379.434 455.334 380.836 456.735 383.64 456.735H563.987C567.142 456.735 568.719 455.334 568.719 452.532V443.6C568.719 440.798 567.142 439.397 563.987 439.397H383.64C380.836 439.397 379.434 440.798 379.434 443.6ZM361.031 526.614C362.082 526.614 362.608 526.264 362.608 525.563C362.608 518.908 365.938 515.581 372.598 515.581H397.311C405.373 515.581 412.208 518.558 417.816 524.512C423.775 530.467 426.755 537.472 426.755 545.529V561.816C426.755 573.025 428.683 579.505 432.539 581.256C436.745 583.008 450.941 583.883 475.128 583.883C496.861 583.883 511.232 583.183 518.243 581.782C525.253 580.38 529.81 576.352 531.913 569.697C534.718 561.641 539.099 555.336 545.058 550.783C551.017 545.879 557.677 544.128 565.038 545.529L577.657 547.63C578.358 547.98 578.884 547.805 579.235 547.105C579.936 546.404 580.111 545.704 579.761 545.003C575.905 538.698 574.853 532.043 576.606 525.038C578.709 518.032 583.091 512.778 589.751 509.276L607.102 499.818C607.452 499.468 607.628 499.118 607.628 498.767C607.628 498.067 607.277 497.717 606.576 497.717H502.995C502.294 497.717 501.768 498.067 501.417 498.767C501.067 499.468 501.067 499.993 501.417 500.344C504.572 502.796 508.954 506.824 514.562 512.428C520.171 517.682 522.975 524.337 522.975 532.393C523.326 540.099 520.872 546.755 515.614 552.359C510.356 557.963 503.871 560.765 496.16 560.765C488.798 560.765 482.314 558.138 476.705 552.884C467.241 543.777 455.148 533.444 440.426 521.885C436.92 519.083 434.992 515.58 434.642 511.377C434.291 506.824 435.693 502.971 438.848 499.818C439.199 499.468 439.199 499.118 438.848 498.767C438.848 498.067 438.673 497.717 438.322 497.717H379.434H340.525C332.463 497.717 325.452 494.915 319.493 489.31C313.885 483.356 311.081 476.35 311.081 468.294V390.534C311.081 388.082 309.679 386.856 306.874 386.856C301.967 387.206 297.585 385.98 293.729 383.178C289.874 380.026 287.42 376.173 286.368 371.619C285.667 369.167 284.44 364.614 282.688 357.959C281.286 351.304 280.234 346.05 279.533 342.197C279.533 341.846 279.358 341.671 279.007 341.671C278.657 341.671 278.481 341.846 278.481 342.197V574.426C278.481 575.126 278.657 575.477 279.007 575.477C279.708 575.477 280.234 575.302 280.585 574.951C288.997 562.342 296.709 549.031 303.72 535.02C307.575 527.665 313.184 522.411 320.545 519.258C328.257 515.756 335.793 515.581 343.154 518.733L361.031 526.614Z" stroke="black" stroke-width="1.6" mask="url(#path-6-outside-1_117_263)"/>
</g>
<g style="mix-blend-mode:soft-light">
<path d="M577.806 276.598L578.709 275.996M577.806 276.598C578.662 277.88 579.847 278.657 581.338 278.657H633.391C640.484 278.657 646.336 281.008 651.027 285.695L651.04 285.708L651.054 285.721C656.086 290.414 658.596 296.254 658.596 303.317C658.596 310.381 656.084 316.411 651.027 321.464C646.336 326.151 640.484 328.502 633.391 328.502H324.751C323.069 328.502 321.574 328.866 320.649 329.923C319.693 331.014 319.63 332.505 320.018 334.054C320.355 335.402 320.7 337.286 321.048 339.723L321.058 339.797L321.079 339.868C321.772 342.291 322.299 344.049 322.657 345.128C323.04 346.632 323.719 347.885 324.882 348.531C326.082 349.197 327.473 349.04 328.853 348.45C332.949 346.746 336.837 345.909 340.525 345.909H608.679C616.439 345.909 623.178 348.761 628.944 354.523C634.709 360.284 637.564 367.018 637.564 374.772V479.853C637.564 484.465 635.928 488.394 632.624 491.695C629.32 494.997 625.389 496.632 620.772 496.632C619.792 496.632 618.702 496.868 618.133 497.815C617.592 498.716 617.811 499.808 618.187 500.747L618.218 500.823L618.259 500.894C634.719 528.89 648.724 554.779 660.275 578.563C663.305 585.3 663.467 591.995 660.777 598.717L660.765 598.746L660.755 598.777C658.392 605.858 653.853 611.246 647.084 614.972C640.326 618.343 633.625 618.832 626.914 616.485C620.185 614.132 615.139 609.606 611.752 602.838C609.995 599.326 604.382 588.46 594.922 570.254C594.672 569.757 594.27 569.271 593.642 569.062C593.104 568.883 592.577 568.966 592.123 569.149C591.675 569.188 591.201 569.341 590.824 569.718C590.387 570.154 590.251 570.719 590.243 571.224C589.02 586.032 586.538 597.893 582.833 606.849C579.125 615.811 574.226 621.785 568.212 624.956L568.202 624.962L568.192 624.967C562.085 628.358 551.362 630.969 535.866 632.719C520.412 634.464 500.345 635.339 475.653 635.339C460.235 635.339 448.159 635.164 439.417 634.814L439.395 634.814H439.374C430.639 634.814 421.729 634.464 412.641 633.766C403.541 633.066 396.771 632.195 392.296 631.163L392.263 631.156L392.23 631.15C388.193 630.478 383.942 628.789 379.476 626.042L379.449 626.026L379.421 626.011C374.95 623.605 371.975 621.264 370.358 619.024C369.042 616.702 367.677 612.811 366.289 607.263L366.287 607.255L366.285 607.247C364.902 602.066 364.04 597.068 363.693 592.251V542.452L363.375 542.134C362.515 541.275 361.38 541.514 360.546 541.931L360.163 542.123L360.014 542.524C351.983 564.156 341.156 585.448 327.529 606.399C323.141 612.802 317.092 616.665 309.317 618.017C301.529 619.37 294.455 617.853 288.032 613.461L287.996 613.436L287.958 613.415C285.669 612.108 283.696 610.312 282.038 608.009C281.802 607.564 281.482 607.171 281.054 606.886C280.594 606.58 280.073 606.442 279.533 606.442H279.277L279.048 606.556C278.569 606.795 278.144 607.128 277.842 607.581C277.54 608.034 277.401 608.546 277.396 609.076C277.054 616.836 274.025 623.394 268.274 628.803L268.262 628.815L268.25 628.826C262.849 634.223 256.291 636.915 248.511 636.915H245.882C238.121 636.915 231.383 634.062 225.617 628.301C220.216 622.904 217.522 616.351 217.522 608.577V343.257L214.884 345.894L214.836 346.26C210.632 378.468 205.902 409.8 200.648 440.255C199.651 445.555 196.847 449.863 192.169 453.21C187.528 456.183 182.405 457.014 176.726 455.679C171.024 454.339 166.523 451.339 163.174 446.661C159.824 441.633 158.669 436.315 159.668 430.655C167.034 389.297 173.522 343.914 179.133 294.507L179.134 294.493L179.136 294.479C179.811 286.719 183.168 280.517 189.236 275.801L189.243 275.797C195.634 270.754 202.646 268.736 210.334 269.693L211.29 270.17L211.363 270.195C212.779 270.666 214.176 270.399 215.462 269.543L215.551 269.483L215.627 269.407C216.868 268.167 217.522 266.67 217.522 264.962V191.405C217.522 183.632 220.216 177.079 225.617 171.682C231.383 165.92 238.121 163.067 245.882 163.067H248.511C256.271 163.067 263.01 165.92 268.776 171.682L268.787 171.694L268.799 171.705C274.544 177.108 277.396 183.654 277.396 191.405V268.64C277.396 269.81 277.682 270.988 278.668 271.644C279.62 272.278 280.823 272.152 281.955 271.779C288.986 269.777 295.283 270.945 300.957 275.281L300.965 275.287C303.844 277.444 306.529 278.657 308.977 278.657H361.031C361.743 278.657 362.422 278.476 362.996 278.046C363.525 277.649 363.884 277.1 364.114 276.478C364.491 275.882 364.744 275.232 364.744 274.551C364.744 273.865 364.488 273.263 364.056 272.767C362.971 270.273 361.217 266.958 358.813 262.839C356.421 258.743 354.531 255.481 353.141 253.052C353.075 252.718 352.932 252.395 352.799 252.13C352.596 251.722 352.305 251.243 351.943 250.7C351.604 250.192 351.369 249.796 351.222 249.503C351.149 249.356 351.106 249.252 351.084 249.185C351.081 249.178 351.08 249.172 351.078 249.167C351.076 249.162 351.075 249.157 351.074 249.153V249.003L351.005 248.819C350.432 247.294 349.635 246.057 348.563 245.2C347.476 244.331 346.179 243.912 344.731 243.912H326.328C319.258 243.912 313.223 241.401 308.166 236.348C303.11 231.295 300.598 225.265 300.598 218.201C300.598 211.137 303.11 205.107 308.166 200.054C313.223 195.001 319.258 192.49 326.328 192.49H432.538C434.253 192.49 435.742 192.112 436.808 191.166C437.898 190.197 438.355 188.806 438.355 187.202V181.948C438.355 174.179 441.047 167.442 446.461 161.688C452.224 155.934 458.959 153.085 466.715 153.085H479.334C487.092 153.085 493.643 155.935 499.05 161.676L499.061 161.688L499.073 161.699C504.839 167.461 507.693 174.194 507.693 181.948V187.202C507.693 188.806 508.151 190.197 509.241 191.166C510.306 192.112 511.795 192.49 513.51 192.49H623.401C630.471 192.49 636.506 195.001 641.563 200.054C646.619 205.107 649.131 211.137 649.131 218.201C649.131 225.265 646.619 231.295 641.563 236.348C636.506 241.401 630.471 243.912 623.401 243.912H595.534C593.948 243.912 592.551 244.311 591.439 245.2C590.33 246.087 589.615 247.372 589.224 248.937C588.524 251.733 587.858 253.497 587.27 254.377L587.233 254.434L582.479 263.934C580.425 267.697 578.868 270.634 577.81 272.741C577.364 273.241 577.098 273.853 577.098 274.551C577.098 275.278 577.387 275.969 577.806 276.598ZM216.438 608.577V345.875M279.812 343.707C279.713 343.182 279.62 342.678 279.533 342.197L279.566 342.379C279.644 342.805 279.726 343.248 279.812 343.707ZM421.083 246.027L421.12 245.971C421.976 244.688 423.161 243.912 424.651 243.912H518.768C519.48 243.912 520.16 244.093 520.733 244.523C521.234 244.898 521.582 245.409 521.813 245.99C522.17 246.387 522.451 246.843 522.581 247.36C522.737 247.984 522.648 248.599 522.367 249.16L522.362 249.17L522.357 249.18C518.838 255.862 514.093 264.114 508.128 273.932L508.1 273.977L508.068 274.02C505.853 276.971 503.29 278.657 500.365 278.657H441.477C438.28 278.657 435.819 277.219 434.226 274.433L434.211 274.406L434.197 274.379C428.591 263.175 424.219 254.787 421.077 249.207L421.064 249.184L421.052 249.16C420.549 248.154 420.549 247.094 421.052 246.088L421.083 246.027ZM360.802 527.699H361.031C361.642 527.699 362.291 527.603 362.815 527.254C363.417 526.853 363.693 526.23 363.693 525.563C363.693 522.403 364.483 520.232 365.872 518.844C367.262 517.455 369.435 516.665 372.598 516.665H397.31C405.068 516.665 411.62 519.516 417.026 525.256L417.038 525.268L417.049 525.28C422.815 531.041 425.67 537.775 425.67 545.529V561.816C425.67 567.466 426.154 572.007 427.161 575.392C428.162 578.756 429.742 581.178 432.09 582.244L432.105 582.251L432.121 582.258C433.306 582.751 435.095 583.149 437.413 583.479C439.753 583.813 442.709 584.089 446.274 584.309C453.404 584.749 463.025 584.968 475.127 584.968C496.841 584.968 511.321 584.271 518.455 582.845C522.115 582.114 525.191 580.684 527.636 578.522C530.079 576.363 531.84 573.52 532.943 570.04C535.687 562.162 539.952 556.049 545.716 551.645L545.732 551.633L545.747 551.62C551.466 546.914 557.801 545.256 564.835 546.594L564.847 546.597L577.334 548.676C577.803 548.878 578.355 548.979 578.92 548.791C579.484 548.603 579.865 548.192 580.118 547.751C580.503 547.339 580.808 546.862 580.944 546.317C581.1 545.694 581.011 545.079 580.73 544.518L580.71 544.477L580.686 544.437C576.982 538.381 575.98 532.032 577.652 525.326C579.671 518.62 583.852 513.603 590.255 510.236L590.262 510.232L590.269 510.228L607.758 500.696L607.868 500.586C608.337 500.117 608.712 499.507 608.712 498.768C608.712 498.25 608.582 497.662 608.131 497.212C607.681 496.762 607.093 496.632 606.576 496.632H502.994C502.454 496.632 501.933 496.77 501.473 497.077C501.019 497.379 500.687 497.803 500.447 498.282C500.029 499.116 499.79 500.251 500.65 501.111L500.698 501.159L500.751 501.2C503.851 503.609 508.194 507.598 513.795 513.195L513.807 513.208L513.82 513.22C519.198 518.258 521.89 524.621 521.89 532.393V532.418L521.891 532.443C522.228 539.857 519.879 546.227 514.822 551.617C509.77 557.002 503.572 559.681 496.159 559.681C489.089 559.681 482.868 557.169 477.452 552.097C467.955 542.959 455.835 532.605 441.1 521.036C437.814 518.408 436.048 515.174 435.723 511.292C435.397 507.047 436.691 503.508 439.615 500.586C439.908 500.292 440.195 499.858 440.195 499.293C440.195 498.931 440.078 498.623 439.916 498.371C439.889 498.075 439.824 497.77 439.686 497.494C439.578 497.278 439.41 497.05 439.153 496.88C438.89 496.704 438.599 496.632 438.322 496.632H340.525C332.754 496.632 326.016 493.946 320.26 488.543C314.853 482.791 312.165 476.058 312.165 468.294V390.534C312.165 389.1 311.748 387.838 310.743 386.959C309.765 386.104 308.41 385.771 306.874 385.771H306.835L306.797 385.774C302.146 386.106 298.028 384.953 294.392 382.319C290.723 379.312 288.417 375.669 287.425 371.375L287.419 371.348L287.411 371.321C286.714 368.885 285.493 364.351 283.743 357.709C282.354 351.115 281.312 345.907 280.614 342.08C280.595 341.755 280.491 341.358 280.168 341.035C279.805 340.673 279.349 340.586 279.007 340.586C278.665 340.586 278.209 340.673 277.846 341.035C277.483 341.398 277.396 341.854 277.396 342.197V574.426C277.396 574.832 277.441 575.298 277.642 575.699C277.751 575.916 277.919 576.143 278.175 576.314C278.439 576.489 278.73 576.562 279.007 576.562C279.875 576.562 280.725 576.344 281.351 575.719L281.427 575.643L281.487 575.553C289.923 562.908 297.656 549.561 304.685 535.515C308.429 528.376 313.852 523.305 320.972 520.256L320.982 520.251L320.993 520.246C328.444 516.862 335.661 516.705 342.723 519.729L342.727 519.73L360.802 527.699ZM378.348 397.364V390.009C378.348 388.44 378.742 387.064 379.718 386.089C380.694 385.113 382.07 384.721 383.64 384.721H563.986C565.701 384.721 567.19 385.099 568.256 386.045C569.346 387.013 569.803 388.405 569.803 390.009V397.364C569.803 398.968 569.346 400.359 568.256 401.328C567.19 402.274 565.701 402.652 563.986 402.652H383.64C382.07 402.652 380.694 402.26 379.718 401.284C378.742 400.308 378.348 398.933 378.348 397.364ZM378.348 452.532V443.6C378.348 442.031 378.742 440.656 379.718 439.68C380.694 438.705 382.07 438.312 383.64 438.312H563.986C565.701 438.312 567.19 438.69 568.256 439.636C569.346 440.605 569.803 441.996 569.803 443.6V452.532C569.803 454.136 569.346 455.527 568.256 456.495C567.19 457.442 565.701 457.82 563.986 457.82H383.64C382.07 457.82 380.694 457.427 379.718 456.452C378.742 455.476 378.348 454.1 378.348 452.532Z" stroke="white" stroke-width="0.8"/>
</g>
<g style="mix-blend-mode:soft-light" filter="url(#filter1_d_117_263)">
<path d="M475.654 636.424C460.23 636.424 448.137 636.249 439.374 635.898C430.611 635.898 421.672 635.548 412.559 634.848C403.445 634.147 396.609 633.271 392.053 632.22C387.846 631.52 383.465 629.769 378.908 626.966C374.351 624.514 371.196 622.063 369.444 619.611C368.041 617.159 366.639 613.131 365.237 607.526C363.835 602.272 362.959 597.193 362.608 592.29C362.608 587.386 362.608 580.556 362.608 571.799V542.902C362.258 542.551 361.732 542.551 361.031 542.902C352.969 564.618 342.102 585.985 328.432 607.001C323.875 613.656 317.565 617.684 309.503 619.085C301.441 620.486 294.08 618.91 287.42 614.357C284.966 612.956 282.863 611.029 281.11 608.577C280.76 607.877 280.234 607.526 279.533 607.526C278.832 607.877 278.481 608.402 278.481 609.103C278.131 617.159 274.976 623.989 269.017 629.593C263.409 635.198 256.573 638 248.511 638H245.882C237.82 638 230.81 635.023 224.851 629.068C219.242 623.464 216.438 616.633 216.438 608.577V345.874L215.912 346.4C211.706 378.625 206.974 409.974 201.716 440.447C200.664 446.052 197.685 450.605 192.777 454.108C187.87 457.26 182.437 458.136 176.478 456.735C170.519 455.334 165.787 452.182 162.281 447.278C158.776 442.024 157.549 436.419 158.601 430.465C165.962 389.133 172.447 343.773 178.055 294.385C178.756 286.329 182.261 279.849 188.571 274.945C195.231 269.691 202.592 267.589 210.654 268.64L211.706 269.165C212.757 269.516 213.809 269.34 214.861 268.64C215.912 267.589 216.438 266.363 216.438 264.962V191.405C216.438 183.349 219.242 176.519 224.851 170.915C230.81 164.96 237.82 161.983 245.882 161.983H248.511C256.573 161.983 263.584 164.96 269.543 170.915C275.502 176.519 278.481 183.349 278.481 191.405V268.64C278.481 270.742 279.533 271.442 281.636 270.742C288.997 268.64 295.657 269.866 301.616 274.419C304.421 276.521 306.874 277.572 308.977 277.572H361.031C362.082 277.572 362.784 277.046 363.134 275.996C363.835 274.945 363.835 274.069 363.134 273.369C362.082 270.917 360.33 267.589 357.876 263.386C355.422 259.183 353.495 255.855 352.092 253.403C352.092 253.053 351.742 252.352 351.041 251.302C350.34 250.251 349.989 249.55 349.989 249.2C348.938 246.398 347.185 244.997 344.731 244.997H326.329C318.967 244.997 312.658 242.37 307.4 237.116C302.142 231.862 299.513 225.557 299.513 218.201C299.513 210.845 302.142 204.54 307.4 199.286C312.658 194.032 318.967 191.405 326.329 191.405H432.539C435.693 191.405 437.271 190.004 437.271 187.202V181.948C437.271 173.892 440.075 166.886 445.683 160.932C451.642 154.977 458.653 152 466.715 152H479.334C487.396 152 494.232 154.977 499.84 160.932C505.799 166.886 508.779 173.892 508.779 181.948V187.202C508.779 190.004 510.356 191.405 513.511 191.405H623.401C630.762 191.405 637.072 194.032 642.33 199.286C647.588 204.54 650.217 210.845 650.217 218.201C650.217 225.557 647.588 231.862 642.33 237.116C637.072 242.37 630.762 244.997 623.401 244.997H595.534C592.73 244.997 590.977 246.398 590.276 249.2C589.575 252.002 588.874 253.929 588.173 254.979C587.122 257.081 585.544 260.233 583.441 264.437C581.338 268.29 579.761 271.267 578.709 273.369C578.008 274.069 578.008 274.945 578.709 275.996C579.41 277.046 580.286 277.572 581.338 277.572H633.391C640.752 277.572 646.887 280.024 651.794 284.927C657.052 289.831 659.681 295.961 659.681 303.317C659.681 310.672 657.052 316.977 651.794 322.231C646.887 327.135 640.752 329.587 633.391 329.587H324.751C321.596 329.587 320.37 330.988 321.071 333.79C321.421 335.191 321.772 337.118 322.122 339.57C322.823 342.022 323.349 343.773 323.7 344.824C324.401 347.626 325.978 348.502 328.432 347.451C332.638 345.699 336.669 344.824 340.525 344.824H608.679C616.741 344.824 623.752 347.801 629.711 353.756C635.67 359.71 638.649 366.716 638.649 374.772V479.853C638.649 484.757 636.897 488.96 633.391 492.463C629.886 495.965 625.68 497.717 620.772 497.717C619.02 497.717 618.494 498.592 619.195 500.344C635.67 528.365 649.691 554.285 661.258 578.104C664.413 585.109 664.588 592.115 661.784 599.12C659.33 606.476 654.598 612.08 647.588 615.933C640.577 619.436 633.567 619.961 626.556 617.509C619.545 615.057 614.288 610.329 610.782 603.323C609.03 599.82 603.421 588.962 593.957 570.748C593.606 570.047 593.081 569.872 592.38 570.223C591.678 570.223 591.328 570.573 591.328 571.273C588.874 601.046 581.338 619.26 568.719 625.916C556.1 632.921 525.078 636.424 475.654 636.424ZM518.769 244.997H424.652C423.6 244.997 422.724 245.522 422.023 246.573C421.672 247.273 421.672 247.974 422.023 248.675C425.178 254.279 429.559 262.685 435.168 273.894C436.57 276.346 438.673 277.572 441.477 277.572H500.366C502.82 277.572 505.098 276.171 507.201 273.369C513.16 263.561 517.892 255.33 521.398 248.675C521.748 247.974 521.573 247.273 520.872 246.573C520.521 245.522 519.82 244.997 518.769 244.997ZM379.434 390.009V397.364C379.434 400.166 380.836 401.567 383.64 401.567H563.987C567.142 401.567 568.719 400.166 568.719 397.364V390.009C568.719 387.206 567.142 385.805 563.987 385.805H383.64C380.836 385.805 379.434 387.206 379.434 390.009ZM379.434 443.6V452.532C379.434 455.334 380.836 456.735 383.64 456.735H563.987C567.142 456.735 568.719 455.334 568.719 452.532V443.6C568.719 440.798 567.142 439.397 563.987 439.397H383.64C380.836 439.397 379.434 440.798 379.434 443.6ZM361.031 526.614C362.082 526.614 362.608 526.264 362.608 525.563C362.608 518.908 365.938 515.58 372.598 515.58H397.311C405.373 515.58 412.208 518.558 417.816 524.512C423.775 530.467 426.755 537.472 426.755 545.529V561.816C426.755 573.025 428.683 579.505 432.539 581.256C436.745 583.008 450.941 583.883 475.128 583.883C496.861 583.883 511.232 583.183 518.243 581.781C525.253 580.38 529.81 576.352 531.913 569.697C534.718 561.641 539.099 555.336 545.058 550.783C551.017 545.879 557.677 544.128 565.038 545.529L577.657 547.63C578.358 547.98 578.884 547.805 579.235 547.105C579.936 546.404 580.111 545.704 579.761 545.003C575.905 538.698 574.853 532.043 576.606 525.038C578.709 518.032 583.091 512.778 589.751 509.276L607.102 499.818C607.452 499.468 607.627 499.118 607.627 498.767C607.627 498.067 607.277 497.717 606.576 497.717H502.995C502.294 497.717 501.768 498.067 501.417 498.767C501.067 499.468 501.067 499.993 501.417 500.344C504.572 502.796 508.954 506.824 514.562 512.428C520.171 517.682 522.975 524.337 522.975 532.393C523.325 540.099 520.872 546.754 515.614 552.359C510.356 557.963 503.871 560.765 496.16 560.765C488.798 560.765 482.314 558.138 476.705 552.884C467.241 543.777 455.148 533.444 440.426 521.885C436.92 519.083 434.992 515.58 434.642 511.377C434.291 506.824 435.693 502.971 438.848 499.818C439.199 499.468 439.199 499.118 438.848 498.767C438.848 498.067 438.673 497.717 438.322 497.717H379.434H340.525C332.463 497.717 325.452 494.914 319.493 489.31C313.885 483.356 311.081 476.35 311.081 468.294V390.534C311.081 388.082 309.678 386.856 306.874 386.856C301.967 387.206 297.585 385.98 293.729 383.178C289.874 380.026 287.42 376.173 286.368 371.619C285.667 369.167 284.44 364.614 282.688 357.959C281.286 351.304 280.234 346.05 279.533 342.197C279.533 341.846 279.358 341.671 279.007 341.671C278.657 341.671 278.481 341.846 278.481 342.197V574.426C278.481 575.126 278.657 575.477 279.007 575.477C279.708 575.477 280.234 575.302 280.585 574.951C288.997 562.342 296.709 549.031 303.719 535.02C307.575 527.665 313.184 522.411 320.545 519.258C328.256 515.756 335.793 515.58 343.154 518.733L361.031 526.614Z" fill="#F2F2F2" fill-opacity="0.01" shape-rendering="crispEdges"/>
</g>
<defs>
<filter id="filter0_d_117_263" x="0" y="0" width="826" height="826" filterUnits="userSpaceOnUse" color-interpolation-filters="sRGB">
<feFlood flood-opacity="0" result="BackgroundImageFix"/>
<feColorMatrix in="SourceAlpha" type="matrix" values="0 0 0 0 0 0 0 0 0 0 0 0 0 0 0 0 0 0 127 0" result="hardAlpha"/>
<feOffset dy="14"/>
<feGaussianBlur stdDeviation="13"/>
<feComposite in2="hardAlpha" operator="out"/>
<feColorMatrix type="matrix" values="0 0 0 0 0 0 0 0 0 0 0 0 0 0 0 0 0 0 0.17 0"/>
<feBlend mode="normal" in2="BackgroundImageFix" result="effect1_dropShadow_117_263"/>
<feBlend mode="normal" in="SourceGraphic" in2="effect1_dropShadow_117_263" result="shape"/>
</filter>
<filter id="filter1_d_117_263" x="113.237" y="127" width="595.527" height="576" filterUnits="userSpaceOnUse" color-interpolation-filters="sRGB">
<feFlood flood-opacity="0" result="BackgroundImageFix"/>
<feColorMatrix in="SourceAlpha" type="matrix" values="0 0 0 0 0 0 0 0 0 0 0 0 0 0 0 0 0 0 127 0" result="hardAlpha"/>
<feOffset dy="20"/>
<feGaussianBlur stdDeviation="22.5"/>
<feComposite in2="hardAlpha" operator="out"/>
<feColorMatrix type="matrix" values="0 0 0 0 0 0 0 0 0 0 0 0 0 0 0 0 0 0 1 0"/>
<feBlend mode="normal" in2="BackgroundImageFix" result="effect1_dropShadow_117_263"/>
<feBlend mode="normal" in="SourceGraphic" in2="effect1_dropShadow_117_263" result="shape"/>
</filter>
<linearGradient id="paint0_linear_117_263" x1="26" y1="12" x2="800" y2="786" gradientUnits="userSpaceOnUse">
<stop stop-color="#B88DFF"/>
<stop offset="0.255208" stop-color="#B997FA"/>
<stop offset="0.515625" stop-color="#FE82B1"/>
<stop offset="0.765625" stop-color="#FFB66E"/>
<stop offset="1" stop-color="#FAD7A5"/>
</linearGradient>
<linearGradient id="paint1_linear_117_263" x1="1187" y1="786" x2="1187" y2="1173" gradientUnits="userSpaceOnUse">
<stop/>
<stop offset="1" stop-opacity="0"/>
</linearGradient>
<linearGradient id="paint2_linear_117_263" x1="413" y1="12" x2="413" y2="399" gradientUnits="userSpaceOnUse">
<stop stop-color="#EAEAEA" stop-opacity="0.88"/>
<stop offset="1" stop-color="#E9E9E9" stop-opacity="0"/>
</linearGradient>
<linearGradient id="paint3_linear_117_263" x1="260.21" y1="186.172" x2="621.998" y2="638" gradientUnits="userSpaceOnUse">
<stop stop-color="#F2F2F2"/>
<stop offset="1" stop-color="#EDEDED" stop-opacity="0.52"/>
</linearGradient>
</defs>
</svg>
